<?xml version="1.0" encoding="utf-8"?>
<!-- Generator: Adobe Illustrator 21.0.0, SVG Export Plug-In . SVG Version: 6.00 Build 0)  -->
<svg version="1.1" id="Layer_1" xmlns="http://www.w3.org/2000/svg" xmlns:xlink="http://www.w3.org/1999/xlink" x="0px" y="0px"
	 viewBox="0 0 612 792" style="enable-background:new 0 0 612 792;" xml:space="preserve">
<path d="M579.2,437.4c-1.1-9.2-6.1-16.4-13.3-22.2c-8.7-7.1-18.9-10.9-29.6-13.5c-14.9-3.7-30-5.6-45.4-5.6c-0.7,0-1.5,0.4-2.2-0.5
	c7.8-5.1,12.9-12.5,17.5-20.3c1.3-2.1,0.7-3.8-1.7-4.5c-1-0.3-2.1-0.7-3.2-0.7c-7.5-0.4-15-1.3-22.5-0.4c-1.2,0.1-2.4,0.3-3.6,0.4
	c-0.1-0.8,0.4-1.1,0.6-1.4c3.8-5.1,7-10.5,8.7-16.5c2.2-7.7,7.1-13.1,13.2-17.3c13.3-9.1,27.9-11.6,43.4-6.6c7,2.2,12.7,6.3,16.3,13
	c3.3,6.1,3.1,12.6,1.1,19c-2.3,7.4-6.5,13.7-13.5,17.4c-7.4,4-15.3,3.3-22.6-0.3c-8.1-4-11.9-11.7-8.6-19.8
	c3.2-8.1,13.3-11.8,20.7-7.7c4.4,2.5,4.7,7.3,0.7,10.3c-1.4,1-2.9,1.6-4.5,1.9c-1.6,0.3-2.4,1.1-2.4,2.7c0.1,1.5,0.9,2.5,2.4,2.8
	c1.1,0.3,2.2,0.3,3.3,0.2c4.3-0.6,8.2-4,9.2-8.3c1.1-4.5-0.9-10.1-4.4-12.7c-5.7-4.2-11.8-4.2-18.1-2c-14.6,5.1-16.7,21.3-9.3,31.4
	c3.6,4.9,8.7,7.5,14.5,8.9c8.4,2,16.4,1.3,23.7-3.5c7.1-4.6,11.5-11.4,14.1-19.3c2.1-6.3,2.7-12.7,0.3-19.1
	c-3.5-9.6-10.8-15.4-20.1-18.6c-18.9-6.6-36-2.7-51.6,9.3c-1.6,1.2-3,2.6-4.7,4.1c1.4-9.9,1.6-19.4,2.4-29c0.7-8.9,2.4-17.5,6-25.7
	c4.3-9.9,10.3-18.6,17.9-26.2c5.8-5.8,12.3-10.7,19.6-14.4c1.5-0.7,2.1-1.8,1.8-3.4c-0.3-1.6-1.5-1.8-2.8-1.9
	c-10.7-1.5-21.4-3.1-32.2-3.6c-17.1-0.8-33.9,0.6-50.4,5.8c-11.9,3.7-22.9,9.1-33.2,16.1c-3.9,2.6-7.4,5.7-11.4,8.6
	c0.2-1.8,0.4-3.3,0.6-4.7c0.9-9.1-1.1-17.9-3.1-26.7c-0.5-2.4-2.2-2.9-4.2-1.5c-1.6,1.2-3,2.5-4.6,3.7c-6.2,4.7-12.8,9.1-17.6,15.4
	c-1.4,1.9-2.7,3.9-4,5.9c-0.2-0.1-0.3-0.1-0.3-0.2c-0.1-0.8-0.2-1.5-0.4-2.3c-2.9-15.2-2.4-30.3,1.6-45.2
	c4.2-15.7,12.3-28.7,26.4-37.4c12.9-8,26.8-11.2,41.8-8.6c8.1,1.4,15.6,4.4,21.5,10.1c10.7,10.3,10.6,25.9,2.3,37.6
	c-9.7,13.7-29.4,15.5-42.6,4.3c-3.5-3-6.2-6.7-6.4-11.6c-0.6-11.3,10.4-20.8,21.5-18.8c5.5,1,9.4,5.1,9.5,10c0,3.5-1.8,6.2-4.4,6.6
	c-2.9,0.5-5.6-1.2-6.8-4.5c-0.7-2-2-2.9-4.1-2.6c-2.1,0.3-3.3,1.5-3.5,3.8c-0.1,2.1,0.5,4,1.5,5.8c2.8,4.9,11.1,6.8,16.2,4.8
	c6.5-2.7,9.3-9.1,8.5-15.2c-1.3-9-7.7-14.8-16.7-15.8c-11.6-1.2-21.7,4.3-26.5,14.9c-3.9,8.7-2.8,17,3.3,24.4
	c6.1,7.6,14.3,11.4,24,12.2c7.9,0.7,15.3-0.9,22-5.2c7.5-4.9,12.7-11.6,15.2-20.1c3.9-13.2,1.2-25.1-8.4-34.9
	c-10.2-10.4-23.4-13.5-37.5-12.9c-6.3,0.3-12.4,1.6-18.3,3.7c-13.6,4.9-24.8,12.8-33.1,24.7c-8.7,12.7-12.6,27-13.6,42.2
	c-0.3,4.3-0.4,8.6-0.2,13c-2-3.4-3.8-6.9-5.7-10.3c-6.4-11.1-14.1-21.2-22.9-30.5c-3.2-3.4-3.3-2.1-0.4-6.7c0.1-0.2,0.3-0.4,0.4-0.6
	c3.7-5,7-10.2,8.8-16.2c1.7-5.7,2.3-11.5,0.6-17.4c-1.5-5.4-5.2-9.8-7.3-15c-0.3-0.9-1.3-1.1-2.2-0.4c-1.5,1.1-3,2.3-4.5,3.4
	c-2,1.5-3.8,3.2-5.5,5.8c-0.5-3.1-0.5-5.5-1.6-7.7c-4.3-8.7-10.4-16.1-16.9-23.3c-0.8-0.9-1.5-0.9-2.3,0.1c-2.4,2.6-4.8,5.1-6.8,8
	c-3.5,5-7.6,9.6-10,15.3c-1,2.2-0.9,4.7-1.7,7.3c-2.5-3.9-6.1-6-9.3-8.6c-1.5-1.2-2.3-0.9-3.1,0.7c-1,2.2-1.9,4.5-3.3,6.5
	c-6.2,9.5-5.7,19.4-1.4,29.4c2,4.7,5,8.9,8,13c2.2,3,2.1,3-0.2,5.7c-0.9,1.1-1.9,2.1-2.8,3.1c-8.5,9-15.8,19-21.6,30
	c-1.5,2.8-3,5.5-4.8,8.8c0.6-12.2-0.4-23.5-3.7-34.7c-3.3-11.1-8.5-21.1-16.6-29.3c-11-11.1-24.3-17.7-39.8-19.8
	c-11.6-1.6-22.8-0.1-33.3,5.5c-15.4,8.1-22.1,24.8-18,40.2c3.7,14.4,15.7,25.3,30.2,26.7c14.4,1.4,26.3-3.2,34.1-16
	c4.5-7.5,3.6-17.5-1.8-24.8c-4.9-6.7-11.5-10.5-19.9-10.8c-8.4-0.4-16.8,3.4-20,11.9c-2.2,5.8-0.9,12.6,3.3,16.8
	c3.6,3.5,9.8,4.4,15.2,2.1c4.1-1.8,6.8-5.6,6.7-9.6c-0.1-2.5-1.1-3.8-3.5-4.2c-2.3-0.4-3.4,0.8-4.1,2.9c-1,3-3.7,4.7-6.5,4.3
	c-2.6-0.4-4.3-2.8-4.6-6c-0.6-5.4,5.3-10.5,10.6-10.8c6.4-0.5,11.5,1.9,15.9,6.4c5.9,6.1,6.3,15.6,0.5,21.7
	c-7.4,7.9-16.7,11.2-27.3,9.3c-14.8-2.7-23.2-14.3-23.6-28.7c-0.4-12.4,6.4-21.2,17.9-26.4c12.4-5.6,25.2-5.9,38.1-2.1
	c16.1,4.8,28.5,14.5,36.2,29.6c6.6,12.9,8.9,26.8,9,41.2c0,7.2-0.9,14.2-2.3,21.6c-1.7-2.3-2.8-4.5-4.4-6.5
	c-6.2-7.8-14.8-12.7-22.3-19c-1.6-1.4-3.4-0.6-3.9,1.5c-1.3,5.9-2.8,11.7-3.2,17.8c-0.3,4.5-0.2,9,0.7,13.9c-2.8-2.2-5.1-4-7.5-5.9
	c-10-7.6-21-13.3-32.8-17.5c-15.1-5.4-30.8-7.5-46.8-7.4c-13.7,0.1-27.2,2-40.7,3.9c-1.2,0.2-2.1,0.7-2.3,2
	c-0.2,1.6,0.5,2.6,1.9,3.4c13.1,7,23.4,16.8,31.3,29.3c5.8,9.2,9.9,19.1,11.2,29.9c1.5,11.9,1.5,23.9,3,35.8c-0.7,0-1-0.5-1.3-0.9
	c-6.2-6.1-13.5-10.3-21.8-12.8c-13.1-3.9-26-3.7-38.3,2.9c-13.1,6.9-18.5,18.1-15.6,32c1.8,8.5,6,15.8,12.8,21.3
	c7.2,5.8,15.5,7.2,24.4,5.4c8.5-1.8,15.6-5.7,18.8-14.4c2.3-6.3,2-12.5-1.7-18.2c-4.5-7.1-14.2-10.8-22.4-8.9
	c-8,1.8-12.8,10.2-9.8,17.2c2,4.7,7.3,7.6,11.8,6.5c1.6-0.4,2.5-1.4,2.5-2.9c0.1-1.6-0.9-2.3-2.5-2.6c-1-0.2-2-0.5-2.9-0.9
	c-2.4-1.1-4.4-2.7-4.3-5.6c0-2.9,1.6-4.8,4.2-6c5.2-2.4,11.4-1.6,15.8,2.3c4.7,4.1,6.5,10.2,4.6,15.7c-2,5.7-6.2,9.1-11.7,11
	c-7.3,2.6-14.6,2.8-21.2-1.6c-7.4-4.9-11.7-12.1-13.1-20.8c-1.3-7.8,0.5-14.7,6.4-20.4c6.5-6.3,14.5-8.9,23.2-9.6
	c13-0.9,24.9,2.7,35,11c4.1,3.4,8,7.3,9.7,12.7c1.5,5.1,3.7,9.8,6.5,14.3c1.3,2,2.6,4,4,6.2c-0.5,0-0.8,0-1.1,0
	c-8.4-1.5-16.7-0.4-25.1,0.1c-1.2,0.1-2.5,0.5-3.6,0.9c-1.9,0.6-2.6,2.4-1.5,4.1c2.5,3.8,4.6,7.8,7.6,11.3c3,3.5,6.4,6.5,10.6,9.8
	c-2.1,0-3.5,0-4.8,0c-14.8,0.1-29.4,2.1-43.7,5.7c-10.6,2.6-20.8,6.4-29.4,13.6c-8.8,7.4-14.3,16.3-13.1,28.4
	c0.4,3.8,1.1,7.6,2.1,11.3c0.3,1.1,1,2.1,1.6,3.1c0.7,1.2,1.8,2.2,3.3,1.4c1.5-0.7,2.2-1.8,1.8-3.6c-0.6-2-0.8-4.1-0.4-6.3
	c0.9-4.1,2.9-7.6,5.8-10.5c9-8.9,19.6-14.9,31.9-17.8c14.3-3.4,28-2,41,4.9c4.7,2.5,9,5.5,13.4,9c-1,0.4-1.7,0.6-2.4,0.9
	c-16.6,5.9-28.5,16.9-35.3,33.2c-1,2.5-0.3,3.4,2.4,3.5c4.2,0.1,8,1.2,11.7,3.2c4,2.1,7.5,4.7,11.3,7.2c4.2,2.8,8.4,5.4,13.2,7
	c3,1,6.1,1.7,9.5,1.7c-6.9,9.1-8.9,12.6-10.4,20.4c-2.5,12.7,0.6,23.8,10.6,32.1c7.7,6.4,16.7,7.6,26,3.4c4.4-2,7.8-5.1,8.8-10.3
	c0.6-3.4-1.1-7.3-3.9-8.9c-0.9-0.5-1.8-0.6-2.6,0.1c-0.7,0.6-0.5,1.4-0.2,2.2c1,2.8-0.1,5.7-2.7,7.2c-2.3,1.3-5.3,0.6-7.1-1.8
	c-1.2-1.6-2-3.3-2-5.4c-0.1-5.8,5.7-11.7,12.3-12.4c4.6-0.5,9.2-0.2,13.8,0.7c6.9,1.4,13.9,2.7,20.7-0.7c0.1,0.3,0.2,0.4,0.2,0.6
	c0,0.5,0,1.1-0.1,1.6c-1.3,16,2.6,30.6,13,42.9c11.4,13.5,25.9,21.1,44,20.2c8.9-0.4,16.1-4.1,20.1-12.7c4.6-10-4.1-18.9-12-19.5
	c-0.7-0.1-1.7-0.3-2.2,0.5c-0.5,1,0.6,1,1.1,1.5c3.6,3.6,2.9,9.7-1.5,11.2c-3.3,1.1-6.6,0.9-9.1-1.9c-3.4-3.7-4.7-8.2-4.1-13
	c1.4-11.5,7.5-20.8,14.4-29.9c0.2,0.4,0.4,0.6,0.4,0.8c1,12.5,6.2,23.3,13.7,33.2c6.1,8.1,11.3,16.7,15.3,26
	c0.7,1.7,1.7,3.4,2.8,4.9c1.9,2.8,3.7,2.7,5.6-0.1c0.7-1,1.3-2,1.7-3.1c4.4-9.7,9.4-19,16-27.5c6.3-8.2,11.1-17.2,13.1-27.5
	c0.4-2.2,0.7-4.4,1.1-6.9c5.4,7.2,10.1,14.2,12.8,22.4c2.1,6.4,2.8,12.7-0.9,18.8c-2.4,4.1-8.6,5.8-12,3.1
	c-3.4-2.6-3.3-7.4,0.3-10.8c0.3-0.3,0.8-0.5,0.6-1.1c-0.2-0.5-0.7-0.6-1.2-0.6c-0.8,0-1.6,0-2.3,0.2c-10.8,1.8-15.4,14.1-8.8,22.9
	c4.5,6,10.7,8.7,18,9.2c13.2,0.8,24.9-3.5,35.1-11.5c16.6-13,23.3-30.4,22.1-51.2c0-0.8-0.1-1.6-0.1-2.6c5.6,2.6,11,2.6,16.6,1.5
	c5.6-1,11.2-2.1,17-1.6c4.7,0.4,8.4,2.6,11.3,6.1c2.7,3.3,2.8,7.8,0.5,11.4c-1.5,2.4-4.7,3.5-7,2.4c-2.7-1.2-4.3-4.3-3.5-6.9
	c0.3-1,1-2-0.1-2.7c-1.1-0.7-2.2-0.3-3.2,0.5c-4,3-4.4,9.7-0.7,13.9c5.8,6.5,15.6,8.9,24.4,5.8c11.8-4.2,17.3-13.3,19.1-25.1
	c1.4-9.6-1.5-18.1-6.7-26c-1.3-1.9-2.7-3.7-4.2-5.6c1.9-0.4,3.7-0.3,5.5-0.7c7.4-1.7,13.5-5.6,19.6-9.8c6.5-4.5,12.9-8.9,21.3-8.7
	c1.6,0,2.4-1,1.8-2.7c-0.8-2.2-1.8-4.3-2.9-6.4c-5.9-10.6-14.2-18.7-25.1-24.3c-3.2-1.6-6.6-2.5-10-4.2c1.1-0.8,2-1.5,2.8-2.1
	c6.2-4.7,12.9-8.6,20.4-10.9c12.4-3.8,24.8-3.2,37,0.9c9.8,3.3,18.5,8.5,25.7,15.9c4.7,4.8,7.7,10.3,5.8,17.4
	c-0.5,1.6,0.4,2.6,1.6,3.3c1.4,0.8,2.6,0.2,3.4-1.1c0.6-0.9,1.3-1.8,1.6-2.9C578.6,449.6,579.9,443.6,579.2,437.4z M502.9,402.1
	c3.9,0.4,7.9,0.9,11.8,1.4c-4.5,0.5-9,1.2-13.4,1.8c-8,1.1-15.8,3.3-23.4,5.9c-15.7,5.4-30,13.6-44.2,22.1
	c-13.8,8.2-27.6,16.3-42.5,22.5c-9.3,3.8-19,6.2-29,7.5c-9.7,1.2-19.5,2-29.3,0.6c-6.1-0.9-11.9-2.5-17.4-5.4
	c-0.3-0.2-0.7-0.3-0.7-1c4-0.6,8.2-0.9,12.2-1.9c10.8-2.7,21-7.1,31.1-11.7c12.6-5.7,24.7-12.3,36.9-18.6c12.2-6.4,24.8-12.1,38-16
	c10.7-3.2,21.7-5.4,32.9-6.7C478.2,401.2,490.6,400.9,502.9,402.1z M283.9,450.4c-13.5-3.3-25.8-9.3-38.2-15.4
	c-5.2-2.5-10.3-5.2-15.5-7.9c-1.1-0.6-2.2-1.2-3.5-1.9c3.8-2.7,4.4-7,6.4-10.6c5.5-9.7,12.2-18.4,20.6-25.7
	c10.1-8.8,22.1-13.6,35.2-16c14.1-2.6,28.1-1.9,41.9,1.5c13.8,3.4,25.5,10.5,35.1,21c5.5,6,10.3,12.6,14.2,19.8
	c1.2,2.3,1.8,4.8,3.3,7c0.7,1,1.4,2.1,2.9,2.9c-5.7,3-11,5.8-16.4,8.5c-8.3,4.2-16.8,8.1-25.4,11.6c-10.7,4.3-21.7,7.1-33.1,8.1
	C302,454.3,292.9,452.6,283.9,450.4z M306.4,463.1c3.2,5.5,7.2,9.9,12.1,13.4c0.2,0.1,0.3,0.4,0.5,0.5c5.5,2.1,5.8,7.1,6.2,11.9
	c0.6,6.4-0.8,12.6-2.4,18.8c-1.9,7.3-4.1,14.6-7.3,21.5c-2.6,5.6-6.2,10.7-8.9,16.5c-6.3-10.5-12-20.8-14.9-32.4
	c-1.9-7.4-4.3-14.7-4.1-22.6c0.1-3.2,0.7-6.2,1.5-9.2c0.2-0.9,0.6-1.8,1.4-2.3C297,475.1,302.5,470.1,306.4,463.1z M281.9,365.7
	c0.8,3,0.8,3-2.1,3.7c-5,1.3-4.9,1.2-7.7-3.2c-6.5-10.4-10.4-21.8-13.3-33.6c-1-3.9-2.1-7.7-3.2-11.5c-0.1-0.5-0.2-1.3-0.9-1.2
	c-0.9,0.1-0.6,0.9-0.6,1.5c0,8.3,2.1,16.3,4.9,24c3.1,8.8,6.4,17.5,10.7,25.7c0.5,1,0.2,1.4-0.7,1.8c-3.2,1.3-6.3,2.9-9.2,4.7
	c-1.1,0.7-1.6,0.3-2.2-0.7c-5.3-8.6-9.7-17.5-12.8-27.1c-3.7-11.4-4.3-22.8-1.3-34.5c1.1-4.4,1.6-9.1,2.3-13.8
	c6.7,6.3,12.8,12.7,18.6,19.4c5,5.9,9.4,12.1,13.4,18.7c0.4,0.7,0.5,1.3,0.5,2C277.8,350,279.9,357.8,281.9,365.7z M252.8,380
	c0.5,0.8,1.4,1.7,0,2.5c-1,0.6-1.6,2-3.4,0.6c-8.1-6.7-16.3-13.2-23.1-21.2c-3.9-4.7-7.6-9.5-10.6-14.8c-0.4-0.7-0.7-1.9-1.8-1.3
	c-1,0.5-0.2,1.4,0,2.1c3.5,9.1,9.2,16.6,15.7,23.6c5,5.3,10.3,10.3,15.8,15c1.1,0.9,1.2,1.5,0.1,2.5c-2.1,2.1-4.1,4.3-6.1,6.5
	c-0.5,0.6-0.8,1.1-1.8,0.4c-7.4-5.1-14.9-10.2-20.6-17.3c-5.2-6.6-8.9-13.9-11.4-21.9c-2.5-8.3-3.9-16.7-5-25.3
	c-0.1-0.6-0.4-1.3,0.8-1.3c2.6,1.1,5.2,2.1,7.9,3.3c9.3,4,18,9.2,26.6,14.4c1.8,1.1,2.8,2.4,3.5,4.4C242.6,362,247.6,371,252.8,380z
	 M217.7,387.7c4.6,3.2,8.4,7.4,13.1,10.5c0.5,0.3,0.9,0.6,1.4,0.9c2.7,1.7,2.7,3.2,0.2,5.4c-0.6,0.5-0.9,0.2-1.4,0
	c-7.2-2.6-13.9-6-20.4-10c-4.9-3-9.9-6-14.8-9.1c-0.4-0.2-0.8-0.6-1.3-0.3c-0.6,0.5-0.1,1,0.3,1.4c4.8,5,9.8,9.6,15.8,13.2
	c5.6,3.4,11.4,6.5,17.5,9c1.1,0.5,1,1.1,0.5,1.8c-1.2,2.3-2.6,4.4-3.5,6.9c-0.5,1.3-1.2,0.5-1.9,0.2c-6.6-2.7-12.8-6.3-18.5-10.6
	c-12.3-9.3-21.9-20.9-28.5-34.9c-0.2-0.5-0.4-1-0.6-1.5c-0.1-0.3-0.1-0.6-0.3-1.3c5.5,0.6,10.5,2,15.5,3.6
	C200.6,376.3,209.3,381.9,217.7,387.7z M309.7,365.1c-1.1-13.1-0.9-26.3-1.3-39.5c-0.2-5-0.6-10-1-15c-0.1-0.8,0.2-2-1.1-1.9
	c-1.1,0.1-0.8,1.2-0.9,1.9c-1.2,13.1-1.1,26.2-1.4,39.3c-0.1,5.2-0.6,10.5-0.8,15.7c-0.1,1.1-0.4,1.5-1.5,1.4
	c-3.8-0.2-7.7,0.2-11.5,0.7c-1.2,0.1-1.7-0.2-2.1-1.3c-6-14.7-6-29.5-1.3-44.6c4-13,9.5-25.3,15.8-37.3c1.3-2.5,2.8-5,3.7-8
	c6.9,13.7,14,26.9,18.6,41.2c2.8,8.6,4.9,17.3,4.7,26.5c-0.2,7.8-2.1,15.2-4.9,22.4c-0.3,0.8-0.8,1.2-1.7,1.1c-4-0.4-8-0.9-12-0.7
	C309.4,367.1,309.8,366,309.7,365.1z M418.4,385.3c-0.5-0.5-1,0.1-1.4,0.4c-7.6,4.7-15.1,9.4-23,13.7c-3.9,2.1-7.9,3.8-12.1,5.2
	c-2.3,0.8-2.3-1.8-3.3-2.8c-0.9-0.8-0.1-1.5,0.7-1.9c5.2-2.8,9.7-6.6,14-10.6c3.5-3.2,7.7-5.3,11.6-7.8c6.6-4.3,13.7-7.5,21.3-9.7
	c3.7-1,7.4-1.9,11.5-2.3c-1.3,4.1-3.2,7.5-5.3,10.8c-7.6,12.7-17.7,23-30.2,31c-4,2.6-8.3,4.7-12.7,6.6c-0.7,0.3-1.4,0.8-1.9-0.4
	c-0.8-2.3-2.1-4.4-3.3-6.5c-0.6-1.1-0.6-1.6,0.8-2.2c9.5-4.1,18.6-9.1,26.5-15.7c2.3-1.9,4.2-4.2,6.3-6.3
	C418.5,386.3,418.9,385.8,418.4,385.3z M379.3,393.1c-1.6,1.1-3.4,3.1-4.8,2.9c-1.5-0.2-2.7-2.6-4-4c-0.5-0.5-1-1-1.5-1.5
	c-2.9-3.1-2.9-3.1,0.3-5.7c9-7.5,17.1-15.8,23.8-25.4c2.5-3.6,4.4-7.5,6-11.6c0.2-0.6,0.9-1.6-0.2-2c-0.9-0.3-1.2,0.5-1.5,1.1
	c-6.3,10.8-14.4,20.2-24.1,28.2c-3.4,2.8-6.8,5.5-10.1,8.4c-1.5,1.4-2-0.3-2.9-0.7c-1-0.5-1.1-1.2-0.4-2.3c4.2-6.9,8-14,11.2-21.4
	c1.1-2.6,2-5.3,2.9-7.9c0.3-0.9,0.7-1.7,1.5-2.3c11.4-7.3,23.2-13.9,36-18.7c0.2-0.1,0.5,0,0.9-0.1c-1.3,11.7-3.1,23-7.6,33.8
	C399.5,376.4,390.5,385.7,379.3,393.1z M363.7,361.2c-2.4,5.6-5.7,10.6-8.5,15.9c-0.5,1-1,1.2-2,0.6c-3-1.8-6-3.4-9.2-4.7
	c-1-0.4-1.2-0.8-0.6-1.9c6.2-13.1,11.8-26.4,14.7-40.7c0.6-3,0.6-6.1,0.8-9.1c0-0.5,0.2-1.2-0.6-1.3c-0.7-0.1-0.8,0.7-0.9,1.2
	c-1.4,5.2-2.9,10.4-4.3,15.6c-2.1,7.8-4.7,15.3-8.3,22.6c-1.8,3.6-3.9,6.9-6.1,10.3c-0.6,1-1.2,1.2-2.3,0.8
	c-1.9-0.7-4.6-0.4-5.6-1.9c-0.9-1.4,0.5-3.7,1-5.6c1.8-7.2,3-14.4,2.9-21.8c0-2.4,2.1-4.3,3.4-6.3c8.1-12.3,18-23,28.8-33.2
	c0.9,5.1,1.4,10.2,2.6,15.1C373.8,332.4,369.8,346.9,363.7,361.2z M475.6,375.4c8.1-0.6,16.1-0.4,24.7,0.9c-3.1,4-5.6,7.9-9.2,10.9
	c-4.2,3.6-8.7,6.9-14.1,8.7c-3.5,1.2-7.2,1.1-10.9,1.7c-9.5,1.4-19,3.3-28.3,5.8c-0.2,0.1-0.5,0.1-1.2,0.1
	c5.1-3.6,9.8-6.9,14.4-10.4c5.4-4.1,10.7-8.4,15.3-13.4C469,377,472.1,375.7,475.6,375.4z M417,261.3c13.2-9.7,27.9-16.3,43.8-20.2
	c15.9-3.8,32-3.9,48.1-2.2c4.7,0.5,9.3,1.1,14,1.6c0.7,0.1,1.4-0.1,2,0.8c-3.6,2.6-7.2,5.2-10.5,8.1c-10.8,9.6-18.8,21.2-24.1,34.7
	c-5.2,13.1-6.8,26.8-7.7,40.7c-0.6,8.8-1.3,17.5-4.4,25.8c-2.9,7.7-7.2,14.6-12.6,20.7c-10.9,12.5-23.9,22.2-38.4,30.1
	c-1.5,0.8-3,1.9-5.1,2.4c5.9-6,10.7-12.5,14.6-19.5c2.8-5.1,5.2-10.4,7.1-15.8c1.3-3.7,0.2-5.1-3.7-4.6c-10.8,1.3-21.1,4.4-30.8,9.4
	c-1.3,0.7-2.6,1.3-4.4,2.2c2.4-4.5,4.6-8.6,6-13c2.3-7.4,5-14.7,8.8-21.4c4.4-7.7,9.6-14.6,17.5-19.2c8.3-4.9,20.7-3.5,27.4,3.4
	c3.2,3.3,4.5,7.3,3.2,11.9c-1.4,4.9-4.6,8.4-9.7,9.6c-3.9,0.9-7.2-1-9.2-4.8c-1.8-3.5-1.4-6.7,1.2-9c2.2-2,4.5-1.8,6.1,0.7
	c0.3,0.5,0.7,0.9,0.9,1.4c0.5,1.3,1.2,2.2,2.8,1.9c1.5-0.3,1.9-1.5,2.1-2.8c0.6-4-3.1-8-7.7-8.3c-4.2-0.3-7.6,1.4-9.9,4.8
	c-2.7,4-3.2,8.3-1,12.7c4.9,10,18.5,11.3,25.9,2.5c7.3-8.8,4.9-21.4-5-27.3c-7.8-4.5-15.9-5.8-24.4-3c-5.8,1.9-10.6,5.7-14.8,10.1
	c-3.2,3.3-5.8,7.1-8.6,10.9c0.2-2.9,0.4-5.8,0.7-8.7c0.3-3.3-0.7-4.3-3.8-3.5c-4.6,1.2-9,3.2-13.3,5.1c-4.5,2-9,4-13.3,6.9
	c0-2,0.9-3.5,1.4-5c4-10.9,8.5-21.7,14.9-31.6c8.7-13.5,19.4-24.7,33.3-32.7c9.8-5.7,20.2-9.6,31.7-10c8.8-0.3,14.6,5.2,15.3,14
	c1.1,13.2-8.6,23.7-21.5,23.2c-12.3-0.4-15.8-12.7-11.2-19.7c1.9-2.8,4.5-4.3,7.8-4.5c2.7-0.2,4.9,0.9,6.2,3.5
	c1.2,2.4,0.9,4.4-1.1,6.7c-0.6,0.7-1.5,1.2-1.6,2.3c-0.2,1.4,0.6,2.4,1.6,3.2c1,0.7,2,0.7,3.1,0c3.8-2.3,5.6-8.1,3.8-13
	c-3.3-9.3-12.6-10.5-19.6-6.1c-6.4,4-9,10-7.8,17.3c1.2,7.5,5.6,12.6,13,14.8c13.1,3.9,28.5-5,31.8-18.3c2.2-8.9,0.9-17-5.7-23.7
	c-3.9-4.1-9-4.9-14.3-4.6c-10.5,0.5-20.3,3.8-29.5,8.6c-17.8,9.4-31.3,23.3-41.4,40.5c-5.5,9.4-10.5,19-13.7,29.5
	c-0.2,0.6-0.5,1.1-0.8,1.7c0.3-15.5,0.4-31,9.4-44.8C398.6,277.4,407,268.6,417,261.3z M377.5,256c2.7-5.1,7.1-8.7,11.5-12.2
	c2.7-2.1,5.6-4,8.3-6.2c1.3-1,1.7-0.6,1.9,0.8c1.1,8.1,2.2,16.2,0.3,24.3c-1.2,4.9-2.5,9.9-6,14c-5.1,6.1-9,12.9-12.4,20.2
	c-0.4-3.6-0.8-7.1-1.3-10.7c-1-6.6-1.9-13.2-4.3-19.4C374,262.8,375.7,259.3,377.5,256z M321.5,178.7c1.5-4.3,1.7-8.9,2.7-13.3
	c0.5-2.1,0.9-4.2,1-6.2c0.1-3,1.3-5.2,3.6-7c1.9-1.5,3.8-3,5.6-4.6c1.1-0.9,1.6-0.8,2,0.7c0.6,1.9,1.4,3.8,2.3,5.6
	c1.5,3.2,2.4,6.5,2.2,10c0.3,4.9-1.4,9.4-3.4,13.7c-1.9,4-4.2,7.9-6.6,11.6c-0.9,1.3-1.5,1.5-2.5,0.1c-2-2.8-4.3-5.4-6.5-8
	C321.2,180.4,321.1,179.8,321.5,178.7z M295,141.6c3.3-6.2,8.1-11.5,11.5-18c3.4,6.5,8.1,11.6,11.4,17.8c2.4,4.5,3.5,9.3,2.4,14.5
	c-1,4.5-1.7,9.1-2.6,13.6c-0.2,1.2-0.6,2.4-1.4,3.6c-4.6-7-7.1-14.7-9.8-22.6c-2.7,7.8-5.2,15.5-9.8,22.5c-1.4-1.7-1.5-3.8-1.9-5.6
	c-0.9-4.4-1.7-8.8-2.4-13.2C291.7,149.8,292.9,145.5,295,141.6z M272,161.3c0.3-4.2,2.5-7.5,3.8-11.2c0.3-0.8,0.6-1.6,0.9-2.4
	c0.1-0.4,0.1-0.8,0.9-0.7c0.3,0.2,0.6,0.4,1,0.7c1.4,1.1,2.8,2.3,4.2,3.4c2.9,2.2,4.5,4.8,5,8.7c0.8,6.6,1.7,13.2,3.9,19.5
	c0.3,0.8,0,1.2-0.4,1.7c-2.3,2.9-4.7,5.8-7.1,8.8c-0.7,0.9-1.3,0.7-1.8-0.1C277,180.9,271.2,172.4,272,161.3z M250.4,245.3
	c5.6-11.8,12.9-22.5,21.1-32.6c5.9-7.3,12.1-14.4,18-21.7c7.2-9,13.1-18.7,16.5-29.8c0.1-0.3,0.2-0.6,0.4-1.3c1,2.6,1.7,4.9,2.6,7.1
	c4.4,11,11.2,20.4,18.8,29.3c9.6,11.2,19.2,22.5,27.1,35c6.5,10.3,11.5,21.3,14.7,33.1c2.9,10.7,6.1,21.4,7.3,32.5
	c0.7,6.9,0.6,13.8,0.4,20.7c0,2.2,0,4.4-0.4,6.6c-0.4-2.5-1.3-4.7-1.7-7.1c-1.2-6.8-3.3-13.4-5.2-20c-0.6-1.9-1.7-2.2-3.4-1
	c-4.2,3-7.8,6.8-11.5,10.4c-0.6,0.5-1,1.2-1.7,1.7c1.5-3.9,3.2-7.6,4.6-11.5c4.8-12.7,7.7-25.7,6-39.3c-1-7.6-4.2-14.2-10.3-19.1
	c-7.4-5.9-20.7-6-28.1,0c-9.1,7.2-12.4,16.6-10,27.9c2.3,10.7,14,17.5,23.8,13.9c8.3-3.1,12-12,8.3-20c-2.9-6.4-12.2-8.6-17.6-4.2
	c-2.8,2.3-3.7,7-1.8,9.6c0.6,0.8,1.2,1.5,2.3,1c1.1-0.5,1.3-1.4,0.9-2.6c-1.1-3.9,2.3-7.1,6.2-6.1c3.4,0.9,6.4,4.2,6.7,7.4
	c0.4,3.7-1.8,7.7-5.1,9.4c-6.8,3.5-14.8,0.4-18.3-7.2c-3.5-7.3-1.4-17.1,4.9-23.3c5.5-5.4,14.8-7,21.9-3.5c5.4,2.7,8.5,7.2,10,12.9
	c2.4,9.1,1.4,18-0.6,27c-2.2,10-5.5,19.6-9.7,28.9c-3,6.5-6.7,12.5-11,18.2c-0.8,1.1-1.6,2.2-2.6,3.6c-1-4.2-1.8-8.2-3-12
	c-4.2-13.4-9.8-26.2-17.8-37.9c-1.4-2.1-3.1-3.9-5-5.6c-1.1-1-1.8-1.2-3.1-0.1c-4.5,4-7.5,9-10.3,14.2c-5.3,9.8-9.8,20-12.9,30.7
	c-1,3.4-1.7,7-2.5,10.7c-5.9-7.6-11-15.4-14.7-24c-5.3-12.6-9.5-25.5-10.6-39.3c-0.5-6.5,0.4-12.9,3-18.9c3-6.9,11.2-11,19.3-10
	c12.8,1.6,21.2,16.5,16,28.2c-2.7,6-8.3,9.5-14.4,8.9c-5.7-0.6-10.1-6.2-9-11.6c0.8-4.1,6.8-8.8,10.9-5.8c1.8,1.3,2.9,2.9,1.9,5.2
	c-0.5,1.1-0.3,2,0.8,2.6c1.2,0.7,1.9-0.2,2.5-1c1.9-2.7,0.8-7.4-2.1-9.7c-6.8-5.4-17.5-0.3-18.6,8.3c-0.7,5.5,0.9,10.3,5.4,13.7
	c5.4,4.1,11.4,4.5,17.5,1.6c8.2-4,11.5-12.1,11.3-20.6c-0.3-8.2-3.7-14.9-10.3-19.9c-7.7-5.9-16.2-6.4-24.8-2.6
	c-7.3,3.3-11.3,9.5-13.2,17c-2.9,11.3-1.2,22.4,1.7,33.4c1.9,7,4.5,13.8,7.8,20.4c0.2,0.3,0.2,0.7,0.6,1.6
	c-3.6-3.4-6.8-6.5-10.1-9.5c-1.1-1-2.3-1.9-3.5-2.8c-1.7-1.2-2.7-1-3.3,1c-1.4,4.5-2.9,9.1-4.1,13.7c-1.1,4.3-1.9,8.6-2.9,12.9
	c-0.6-5.9-0.6-11.7-0.5-17.6c0.1-6.7,0.5-13.3,2.1-19.8C241.2,272.6,244.1,258.4,250.4,245.3z M213.8,238.6c0.1-0.8,0.1-2.3,1.6-1.1
	c6,4.7,12.6,8.7,17.5,14.7c2.6,3.2,4.5,6.8,5.1,10.9c0.4,2.6-1.2,5-1.8,7.4c-1.9,7.2-3.2,14.5-3.8,21.9c-0.1,1.5-0.2,3.1-1,4.9
	c-3.4-8.9-8.6-16.3-14.1-23.6c-2.3-3.1-3.3-7.5-4.1-11.6C211.8,254.3,212.7,246.4,213.8,238.6z M130.9,331.6
	c-0.7-9.5-1.2-19.1-2.9-28.5c-1.6-8.7-4.2-17-8-25c-4.4-9.2-10.2-17.4-17.3-24.6c-3.7-3.7-7.7-7.1-12-10.1c-0.9-0.6-2-1-2.7-2.2
	c2.6-0.9,5.3-0.8,7.8-1.1c11.9-1.6,23.8-2.6,35.9-1.8c12.4,0.8,24.4,3.4,36.1,7.8c12.5,4.8,24,11.5,34.3,20
	c10.7,8.9,19.3,19.6,24.6,32.7c1.9,4.7,3.1,9.7,3.4,14.8c0.3,6.3,0.8,12.7,1.2,19.6c-1.3-1.7-1.5-3.3-2.1-4.7
	c-4.5-12.7-10.7-24.5-18.4-35.5c-7.3-10.4-16-19.3-26.4-26.4c-11.3-7.7-23.5-12.8-37.3-14.3c-16.2-1.8-23.3,10.8-22.5,23.2
	c1,16.1,15.8,25.5,29.2,24.1c12.7-1.3,20.6-14.9,14.9-26.3c-3.4-6.8-12.2-11.7-20.3-7.5c-6.6,3.4-8.9,14.6-2.3,19.6
	c1.6,1.2,3,1.2,4.3-0.3c1.3-1.5,1.3-2.8-0.2-4.3c-2.7-2.9-3-5.3-1.2-8c1.7-2.5,4.9-3.1,8.2-2.2c6,1.8,9.2,9.7,6,16.4
	c-2.7,5.7-7.5,7.5-13.3,7.3c-11.6-0.2-20.6-9.9-20.2-21.6c0.4-11.2,7.7-17.1,18.7-15.5c19.4,2.8,35.3,12.1,48.7,26
	c9.6,10,16.6,21.5,22.2,34c2.6,5.8,4.7,11.7,6.9,17.7c0.1,0.3,0.1,0.6,0.1,1.1c-5.1-2.8-10.1-5.4-15.2-7.6
	c-3.8-1.6-7.6-2.9-11.4-4.2c-2.9-0.9-4,0.2-3.7,3.1c0.3,3,0.5,6.1,0.7,9.8c-1.9-2.7-3.4-4.9-5-7.1c-3.7-5.2-8.4-9.4-14-12.6
	c-5.9-3.4-12.3-4.2-18.9-2.9c-6.3,1.2-11.8,4-15.8,9.2c-4.9,6.3-4.6,15.4,1,22.1c4.8,5.8,13,7.3,20,3.7c4.5-2.3,7.4-7.9,6.9-13.2
	c-0.4-4.9-3.6-8.6-8.4-10.2c-3.9-1.3-8.5,0.4-10.6,3.9c-0.9,1.5-1,3.1-0.6,4.8c0.3,1.2,0.9,2,2.2,2.2c1.2,0.1,1.9-0.5,2.3-1.5
	c0.1-0.1,0.1-0.3,0.2-0.4c1.7-2.9,3.1-3.8,5-3.2c2.5,0.8,4.6,3.7,4.2,6.4c-0.4,3.5-2,6.6-5.3,8.1c-3.4,1.6-6.8,0.6-9.7-1.7
	c-4.1-3.3-6.2-7.5-5.2-12.8c1-5.4,4.9-8.6,9.7-10.7c12-5.1,22.1-0.6,30.1,8.1c7,7.5,11.4,16.5,14.9,25.9c2.2,5.9,3.9,12,7,17.6
	c0.4,0.8,0.8,1.6,1.5,2.9c-4.7-2.4-9-4.6-13.5-6.3c-7.1-2.7-14.3-4.5-21.8-5.3c-3.8-0.4-4.9,0.9-3.6,4.7
	c4.2,11.5,9.8,22.2,18.1,31.3c1.1,1.2,2.1,2.5,3.2,3.7c-6.6-2.9-12.7-6.5-18.6-10.6c-9.4-6.6-18.1-14-25.5-22.8
	C136.9,359.1,131.9,346.2,130.9,331.6z M112.9,376.4c5.7-1.4,11.4-1.1,16.9-1.3c3-0.1,5.9,0,8.9,0.5c3.1,0.5,5.7,2,7.9,4.2
	c7.4,7.6,15.9,14.1,24.7,20.1c1.5,1,3,2.2,4.4,3.6c-4.1-1-8.1-2-12.2-2.9c-8-1.7-16-3-24.1-3.8c-3.6-0.3-6.8-2-9.8-3.8
	C122.8,389,117.4,383.3,112.9,376.4z M109.1,402.1c11.5-1.1,23-1.1,34.5,0c14.5,1.4,28.7,4.4,42.6,9.2c11.9,4.1,23.3,9.5,34.5,15.4
	c15,8,30.1,15.7,45.8,22.3c10.1,4.2,20.5,7.7,31.7,8.5c-2.7,1.9-5.5,3.3-8.6,4.2c-12,3.5-24.1,3.2-36.4,1.7c-9.2-1.1-18.2-3-27-6.1
	c-9.9-3.5-19.3-8.2-28.4-13.4c-11-6.2-21.7-12.7-32.7-18.9c-11.4-6.5-23.3-12.1-36-15.9c-10.1-3-20.4-5-31-5.7
	C101.8,403.1,105.5,402.5,109.1,402.1z M113.3,416c-10.3-3.2-20.8-3.5-31.4-1.3c-7.7,1.5-15.1,4.1-22,7.9c-7.9,4.3-15,9.6-20.5,17.2
	c0.3-3.6,3.5-9.7,5.5-12.3c6-8.2,14.7-12.2,23.9-15.3c11.8-3.9,23.9-4.2,36.1-2.9c11.6,1.3,22.9,4.2,33.7,8.7
	c8.7,3.6,17.1,7.7,25.2,12.4c10.1,5.9,20.3,11.8,30.4,17.6c14.5,8.4,29.7,15,46.2,18.6c10.9,2.4,21.8,3.5,32.9,3
	c10.5-0.5,20.7-2.3,29.6-8.7c-3,5.7-7.4,10.1-12.8,13.4c-13.9,8.5-29,12.6-45.2,13.3c-14.3,0.6-28.1-1.4-41.5-6.3
	c-13-4.8-24.3-12.2-34.3-21.7c-8.4-8-16.5-16.5-25-24.4C135.2,426.7,125.2,419.7,113.3,416z M176.4,473.4c-5.2,1.2-9.4,4.3-14.1,5.1
	c-7,1.2-14,0.4-20.3-3.6c-3.2-2.1-6.1-4.7-8.9-7.2c-3.4-3.1-7-6-11.9-7.7c4.9-3.6,9.8-6.4,15.3-7.9c4-1.1,8.1-1.9,12.2-2
	c1.4-0.1,2.4,0.3,3.3,1.3c5.6,5.7,11.3,11.2,17.3,16.5C171.5,469.6,173.8,471.3,176.4,473.4z M137.7,486.7c-5.3-2.1-10.1-5-14.9-8
	c-6.4-4-12.7-8-20.3-9.4c-1.1-0.2-1.3-0.6-0.7-1.7c7.8-13.7,19.2-22.8,34.3-27.5c2.3-0.7,4.2-0.7,5.8,1.5c1.2,1.5,3,2.5,4.5,4.6
	c-6.5-0.2-12.3,1.1-17.8,3.5c-5.2,2.2-9.7,5.3-13.4,9.7c-0.7,0.8-1.2,1.7-0.6,2.8c0.5,0.9,1.4,1.1,2.4,1c3.4-0.3,6.1,1.3,8.5,3.3
	c2.5,2,4.8,4.2,7.2,6.4c5.5,5.2,12,8.4,19.2,10.2c0.6,0.1,1.3,0,1.7,0.6C149.3,488.7,145,489.5,137.7,486.7z M163.3,545.5
	c-10.4,1.2-20.8-6.3-23.3-16.9c-2.8-12.3,1-22.9,9.2-32c7.4-8.3,17-13,27.6-16c0.2,0,0.3,0,0.5-0.1c4.5-2.8,8.5-1.4,12.6,1.2
	c4.5,2.8,9.4,4.5,14.4,6.2c0.6,0.2,1.3,0.3,2,1.1c-4.8,0.4-9.4,0.6-13.9,1.3c-11.4,1.8-22,5.4-31,13c-6.7,5.7-12.1,12.2-13.7,21.2
	c-1.5,8.4,2.8,16.4,10.9,19.6C160.1,544.5,161.6,545,163.3,545.5z M206.5,515.2c-5.4,2.1-10.8,1.5-16.2,0.6
	c-6.1-1-12.3-1.7-18.5-0.7c-8.1,1.2-14.9,8.7-14.7,16.1c0.1,3.3,1.2,5.6,4.7,9.7c-8.3-1.7-12.9-10.7-10-19
	c2.2-6.5,6.5-11.5,11.6-15.9c10.2-8.8,22.5-12.3,35.6-13.4c6-0.5,12-0.7,18.4-1.1c-0.7,1.5-1.4,2.8-2,4c-2.6,5.1-4.6,10.4-5.7,16.1
	C209.2,513.5,208.2,514.5,206.5,515.2z M282.2,566c0.1-0.4,0.3-0.7,0.5-1.3c0.2,5.1-3.7,10.7-8.5,12.7c-7.7,3.3-15.6,2.9-23.5,0.7
	c-11.4-3.3-20.5-9.9-27.4-19.4c-4.3-5.9-6.9-12.5-8.1-19.8c-1.5-9.5-1-18.8,1.9-27.9c1.9-6.2,5-12,8.3-17.6c0.6-1,1.3-0.6,2-0.6
	c7.8,0.2,15.7,0.7,23.5-0.2c1.1-0.1,2.2-0.3,3.9-0.5c-4.2,3.3-7.9,6.4-11.2,9.9c-7.3,7.7-11.5,16.8-13.6,27.1
	c-1.7,8.5-1.6,16.9,1.5,25c2.6,7,7.2,12.7,13.6,16.6c6.6,4,13.7,6.5,21.5,6.6C274,577.3,279.7,573.2,282.2,566z M271.7,512.9
	c0,1.4-0.4,2.5-1.4,3.6c-4.8,5.4-9.2,11.1-12.4,17.6c-3.5,7-6,14.2-4.6,22.1c1.2,7.3,6.4,13.4,14.4,13.1c4.8-0.1,7.6-1.9,10.4-6.8
	c-0.3,5.6-4.5,10.2-10.1,10.3c-12.9,0.4-26.9-5.5-32.8-18.8c-4.2-9.4-3.9-19.2-1.3-29c3.6-13.7,12.3-23.5,23.4-31.5
	c4.7-3.4,10.3-4.4,15.6-6.2c1.6-0.6,3.2-1.1,5.3-1.8c-3,5.5-4.9,11.1-5.7,17C271.9,506,271.8,509.4,271.7,512.9z M330.8,539.2
	c-2.7,5.7-6.5,10.7-10.3,15.7c-4.4,5.7-7.3,12.2-10.6,18.5c-0.9,1.8-1.7,4.7-3.3,4.7c-1.7,0.1-2.6-2.7-3.4-4.6
	c-3.8-8.4-8.7-16.2-14.3-23.6c-10.1-13.2-13.8-28-11.6-44.4c0.7-5.1,1.6-10.2,3.8-15c0.2-0.5,0.4-1,0.7-1.5c0.1-0.2,0.3-0.3,0.8-0.7
	c-0.3,4.5,0,8.6,0.8,12.6c2.7,14.2,7.5,27.6,15.9,39.5c2.6,3.7,4.7,7.6,5.4,12.1c0.2,1,0.4,2,1.8,2.1c1.3,0.1,1.7-0.9,1.8-1.8
	c0.8-5.9,4.2-10.6,7.3-15.3c5.6-8.4,9.3-17.7,11.9-27.4c1.9-7.1,3.5-14.3,2.9-22.4c1.8,2.4,2.5,4.6,3.1,6.7
	C337.8,509.7,337.6,524.7,330.8,539.2z M346.9,569.2c5.8-0.5,9.5-3.9,11.5-9.1c2.9-7.3,1.5-14.4-1.3-21.5c-3.2-8-8-15-13.8-21.4
	c-1.5-1.7-2-3.4-2.1-5.7c-0.2-7.6-0.1-13.4-6.3-26.3c6.3,3.3,13.3,3.6,19.2,7.3c5,3.2,9.4,7,13.5,11.3c7.6,8,11.7,17.7,13,28.5
	c1.1,9.1,0,17.8-5.1,25.7c-4.6,7.1-11.2,11.2-19.2,13.3c-3.5,1-7.2,1.7-10.9,1.5c-5.9-0.4-10.2-4.6-10.6-10.7
	C337.3,567.7,341.5,569.7,346.9,569.2z M398.4,534.5c-1.3,14.1-7.4,25.5-18.5,34.3c-9.4,7.5-20,11.6-32.2,10.7
	c-5.9-0.4-11.4-2.1-15.1-7.3c-1.5-2.2-2.3-4.5-2.4-7.2c0.7,1.5,1.2,3.1,2.1,4.5c3,4.7,7.3,7.7,13,7.6c12.9-0.2,24-4.7,32.1-15.2
	c4.3-5.6,6.2-12.1,6.7-19c0.7-10.5-1.6-20.4-6.5-29.7c-4.3-8.2-10.7-14.7-18.1-20.3c-0.2-0.2-0.5-0.4-1.3-1
	c9.7,1.5,18.8,1.3,27.8,0.7c1-0.1,1.5,0.2,2,1.1C395.4,506.4,399.8,519.7,398.4,534.5z M445.3,516.4c-4.8-2.1-9.9-1.8-15-1.5
	c-4.8,0.3-9.4,1.6-14.2,1.7c-3.5,0.1-6.9-0.1-10.1-1.6c-1.1-0.5-2.1-1.1-2.3-2.4c-1.5-7.4-4.2-14.3-7.8-20.4c4.4,0,9-0.2,13.6,0
	c7.8,0.3,15.6,1.4,23,4.1c12.9,4.7,23.5,12.2,28.6,25.5c3.3,8.6-1.6,17.6-10.1,19.2C460.6,532,454.8,520.6,445.3,516.4z M470,505.5
	c4.3,8.8,5.5,17.8,1.6,27c-3.9,9-13.8,14.3-22.5,13c3.7-0.8,6.9-2,9.7-4c6.1-4.6,8.4-13.1,5.8-20.7c-3.2-9.3-9.7-15.9-17.7-21.2
	c-10.5-6.9-22.3-9.6-34.7-10.3c-1.8-0.1-3.6,0-5.8-0.7c5.1-1.5,9.6-3.4,14.1-5.5c2.5-1.2,4.9-2.4,7.2-3.9c1.3-0.8,2.3-0.9,3.7-0.4
	c5.7,2.1,11.7,3.5,17.1,6.3C457.5,489.9,465.3,496,470,505.5z M436.8,473.5c1.2-1.9,2.9-2.6,4.3-3.7c6.8-5.5,13.1-11.6,19.1-17.9
	c2.2-2.3,4.6-2,7.1-1.7c8.5,0.9,16.4,3.8,23.4,8.8c0.3,0.2,0.5,0.4,1,0.7c-2.5,1.6-4.9,2.5-7,4c-4.6,3.4-8.4,7.7-13.2,10.9
	c-6.4,4.2-13.5,4.6-20.8,4.1c-1.2-0.1-2.3-0.9-3.5-1.4C443.9,475.9,440.6,474.3,436.8,473.5z M492.6,447.6
	c7.6,5.2,13.8,11.7,18.3,19.8c0.8,1.4,0.5,1.8-0.9,2.1c-5.9,1.1-11,3.9-16.1,6.9c-6,3.6-11.8,7.7-18.4,10.2
	c-2.4,0.9-4.9,1.2-7.3,1.7c-4.4,1-6.2-2.8-9.6-4.7c2.6-0.8,4.9-1.4,7.1-2.1c6.3-2,11.5-5.9,16.2-10.4c2.6-2.5,5.1-5.1,8.4-6.7
	c1.7-0.9,3.5-1.5,5.4-1.3c1.1,0.1,2.1,0,2.6-1.1c0.5-1.1-0.1-1.9-0.8-2.7c-5.2-6-11.9-9.5-19.4-11.7c-3.6-1.1-7.4-1.2-11.9-1.4
	c2.4-2.3,4.4-4.2,6.4-6c1-0.9,2.3-0.4,3.4-0.1C482,441.6,487.5,444.1,492.6,447.6z M553.3,422.7c-8.4-4.6-17.5-7.5-27-8.9
	c-19.7-2.7-36.5,3.9-51.5,16c-10.3,8.3-19,18.1-28.5,27.2c-7.9,7.6-16.4,14.5-26.3,19.5c-10,5-20.5,8.3-31.6,9.9
	c-15.7,2.2-31.1,1.4-46.2-3.5c-10.3-3.3-20-7.7-27.6-15.8c-1.8-1.9-3.4-4-4.5-6.5c3.5,2.2,7.1,4.2,11,5.5c8.6,2.9,17.5,3.5,26.5,3.3
	c13.6-0.4,26.9-2.8,39.8-7.1c13.1-4.4,25.3-10.9,37.2-17.8c11.4-6.6,22.5-13.6,34.1-19.6c10.4-5.4,21.1-9.9,32.5-12.8
	c13.1-3.3,26.4-4.7,39.9-3.1c10.7,1.3,20.8,4.6,29.7,10.8c6.7,4.7,10.7,11.4,12.8,19.3C568,432.2,561.1,427,553.3,422.7z"/>
<path d="M315.3,618.9c-4-2.6-8.2-4.1-13.1-2.2c-9.8,3.8-15.9,12.4-16.2,23.3c0.2,2.1,0.2,4.5,1,7c3.1,9.8,9.4,17.4,16,24.8
	c2.4,2.7,4.5,2.6,7,0c5.3-5.7,9.9-11.9,13.6-18.8C330.2,640.7,326.9,626.4,315.3,618.9z M295.8,626.1c0.4-0.5,0.8-1.2,2-1.3
	c-2.2,5.7-3,11.4-2.3,17.3c0.7,5.7,2,11.3,4.1,17.2C290.7,648.8,286.9,636.9,295.8,626.1z M306.5,665.2c-2.5-4.1-3.7-8.3-4.9-12.5
	c-2.3-7.8-3.7-15.7-1.6-23.8c0.9-3.4,2.9-6.2,5.6-8.4c0.9-0.8,1.5-0.4,2.2,0.3c4.5,3.7,6,8.8,6.3,14.4c0.3,7-1.2,13.8-3.5,20.5
	C309.4,658.7,308.4,661.9,306.5,665.2z M313.6,658.9c3.3-11.2,6.3-22.4,1.7-34C324.3,632.6,325.1,645,313.6,658.9z"/>
<path d="M311.8,595.4c0,3-2.2,5.3-5.3,5.4c-3,0-5.4-2.3-5.4-5.3c0-2.9,2.3-5.2,5.4-5.2C309.4,590.3,311.7,592.5,311.8,595.4z"/>
<path d="M134.2,162.1c0-2.6,2.2-4.8,4.8-4.8c2.5,0,4.7,2.3,4.7,4.9c0,2.8-2,4.7-4.8,4.7C136.2,166.8,134.2,164.8,134.2,162.1z"/>
<path d="M469.3,162.1c0-2.5,2.3-4.9,4.7-4.8c2.6,0,4.7,2.2,4.7,4.8c0,2.7-2,4.7-4.7,4.7C471.3,166.9,469.3,164.9,469.3,162.1z"/>
<path d="M41,328c0-2.9,1.7-4.7,4.5-4.6c2.5,0.1,4.4,2.1,4.4,4.6c0,2.6-1.9,4.6-4.6,4.6C42.6,332.5,41,330.8,41,328z"/>
<path d="M563.1,327.8c0.1-2.4,2.3-4.4,4.6-4.4c2.7,0,4.4,1.9,4.3,4.7c-0.1,2.8-1.7,4.4-4.4,4.4C564.9,332.5,562.9,330.4,563.1,327.8
	z"/>
<path d="M50.8,320.3c0-2.2,2.3-4.4,4.6-4.4c2.1,0,3.8,2.1,3.8,4.5c0,2.6-1.5,4.1-4.1,4.1C52.6,324.5,50.8,322.8,50.8,320.3z"/>
<path d="M553.7,320.3c0-2.7,1.8-4.5,4.3-4.4c2.1,0.1,4,2.2,4,4.4c0,2.8-1.6,4.2-4.5,4.2C554.9,324.5,553.6,323.1,553.7,320.3z"/>
<path d="M310.7,608.5c0.1,2.4-1.6,4-4.1,4.1c-2.6,0-4.3-1.5-4.4-3.8c-0.1-2.4,1.6-3.9,4.3-3.9C309,604.7,310.6,606.2,310.7,608.5z"
	/>
<path d="M460.4,153.7c0-2.2,1.5-3.6,3.8-3.6c2.2,0,3.8,1.5,3.8,3.6c0,2-1.7,3.7-3.8,3.7C462,157.4,460.4,155.8,460.4,153.7z"/>
<path d="M145,153.7c0-2.1,1.7-3.6,3.8-3.6c2.2,0,3.7,1.6,3.7,3.7c0,2.1-1.7,3.6-3.8,3.6C146.6,157.4,144.9,155.6,145,153.7z"/>
<path d="M128.5,171.4c0-2,1.4-3.3,3.4-3.3c2.1,0,3.2,1.1,3.2,3.4c0,2.3-1.1,3.4-3.3,3.3C129.7,174.8,128.5,173.5,128.5,171.4z"/>
<path d="M477.8,171.3c0.1-2.3,1.2-3.3,3.4-3.2c2,0.1,3.3,1.6,3.2,3.6c-0.1,2.1-1.4,3.2-3.6,3.2C478.8,174.8,477.7,173.6,477.8,171.3
	z"/>
<path d="M36.9,341.1c-0.1-2,1.3-3.5,3.2-3.6c2-0.1,3.4,1.2,3.4,3.3c0,2-1.3,3.4-3.3,3.5C38.4,344.3,37,342.9,36.9,341.1z"/>
<path d="M572.6,337.5c1.9-0.1,3.4,1.4,3.4,3.3c0,1.8-1.3,3.3-3.1,3.4c-2,0.1-3.4-1.3-3.5-3.2C569.4,339,570.7,337.6,572.6,337.5z"/>
<path d="M542.4,316.1c0-1.8,1.5-3.4,3.1-3.5c1.8-0.1,3.4,1.6,3.4,3.5c0,1.9-1.4,3.2-3.3,3.2C543.7,319.4,542.4,318.1,542.4,316.1z"
	/>
<path d="M64.1,316.1c0.1-1.7,1.8-3.4,3.3-3.3c1.7,0.1,3.3,2,3.1,3.8c-0.2,1.8-1.6,3-3.4,2.8C65.6,319.3,64.1,317.6,64.1,316.1z"/>
<path d="M157.2,149.3c0.1-1.8,1.6-3.1,3.5-3c1.8,0.1,2.9,1.4,2.9,3.3c0,1.9-1.3,3.1-3.3,3C158.4,152.6,157.1,151.3,157.2,149.3z"/>
<path d="M449.4,149.5c0.1-1.9,1.1-3,3.1-3.1c1.9,0,3.3,1.3,3.3,3.1c0,1.9-1.3,3.2-3.2,3.2C450.6,152.7,449.3,151.4,449.4,149.5z"/>
<path d="M75.8,315.3c0-1.9,0.8-3,2.7-3.1c1.9,0,2.8,1.1,2.9,2.6c0,2.2-1,3.3-2.8,3.4C76.9,318.3,75.8,317.2,75.8,315.3z"/>
<path d="M534.5,312.2c2,0.1,2.7,1.3,2.7,3.1c0,1.8-1.3,3.2-2.9,3c-1.8-0.2-2.8-1.3-2.7-3.8C531.6,313.2,532.5,312.2,534.5,312.2z"/>
<path d="M483.3,177.9c2,0,2.9,1,3,2.8c0,1.8-0.8,3-3.4,3c-1.3,0-2.3-1-2.3-2.9C480.5,179.2,481.3,178,483.3,177.9z"/>
<path d="M126.7,180.9c0-1.8,0.8-2.9,2.8-3c2,0,2.9,1.1,2.9,2.9c0,1.8-0.8,3-2.4,3C127.6,183.8,126.7,182.7,126.7,180.9z"/>
<path d="M570.4,364.4c-1.6,0-2.9-1.3-2.8-3.1c0.1-1.7,0.9-2.7,2.8-2.7c1.9,0,2.6,1.2,2.8,2.7C573.5,363,572,364.4,570.4,364.4z"/>
<path d="M39.7,361.5c-0.2-1.7,1.2-2.9,3.5-2.9c1.3,0,2.1,1.1,2.1,2.8c0,1.8-1.2,3-2.9,2.9C40.5,364.4,39.8,363.1,39.7,361.5z"/>
<path d="M568.5,371.8c0,1.5-0.9,2.7-2.7,2.6c-1.6,0-2.7-0.7-2.8-2.4c-0.1-1.8,1-2.8,2.7-2.9C567.5,369,568.5,370.2,568.5,371.8z"/>
<path d="M44.4,371.7c0.1-1.5,1.1-2.6,2.8-2.6c1.8,0.1,2.6,1.2,2.8,2.7c-0.3,2-1.3,2.7-3.1,2.7C45.2,374.4,44.3,373.2,44.4,371.7z"/>
<path d="M484.8,189.4c1.6,0,2.6,1,2.5,2c0,2.4-0.8,3.4-2.5,3.4c-1.7,0-2.6-1-2.7-2.6C482,190.4,483.1,189.4,484.8,189.4z"/>
<path d="M125.6,192.3c-0.1-1.8,0.8-2.9,2.5-2.9c1.6,0,2.5,1,2.8,2.6c-0.1,1.7-0.9,2.7-2.6,2.8C126.7,194.9,125.7,194.1,125.6,192.3z
	"/>
<path d="M41.1,354.9c-1.5,0-2.6-1-2.6-2.8c0-1.8,1.1-2.6,2.7-2.6c1.6,0,2.6,0.9,2.5,2.7C43.7,354,42.6,354.9,41.1,354.9z"/>
<path d="M571.8,354.9c-1.5,0-2.6-0.9-2.6-2.7c0-1.8,1-2.6,2.6-2.6c1.6,0,2.6,0.9,2.6,2.8C574.4,353.9,573.3,354.9,571.8,354.9z"/>
<path d="M168.6,148.7c0-1.4,0.5-2.3,2-2.3c1.5,0,2.1,0.7,2.2,2.2c0,1.4-0.6,2.1-2.1,2.1C169.4,150.7,168.7,150,168.6,148.7z"/>
<path d="M440.1,148.5c0-1.3,0.7-2,2-2c1.5,0,2.2,0.7,2.2,2.2c0,1.4-0.7,2.2-2.2,2.1C440.6,150.7,440.1,149.8,440.1,148.5z"/>
<path d="M299.4,246.9c0.9,1.6,1.8,3.3,3.1,4.7c2.5,2.5,5.6,2.5,8,0c1.4-1.4,2.2-3.2,3.2-4.9c2.7-4.7,5.8-9.1,8.1-14
	c5.3-11.2,3.3-22.1-2.3-32.6c-3.8-7.2-9-13.6-12-21.2c-0.2-0.5-0.5-1.1-1.1-1.1c-0.6,0-0.8,0.6-1.1,1.1c-1.7,3.1-2.9,6.4-4.8,9.4
	c-2.5,4-5.2,7.8-7.3,12c-3.1,5.9-4.9,12.2-5.2,17.7c0,7,2,13.6,5.3,18.9C295.4,240.1,297.5,243.5,299.4,246.9z M296.7,205.8
	c2.5-6.2,6.3-11.7,9.7-17.8c4.1,6.8,8.4,13.2,10.8,20.5c3,8.7,2.3,17.1-2.6,25c-2.3,3.6-4.6,7.3-7.1,10.8c-1,1.4-1.5,1.1-2.3-0.1
	c-3.2-4.6-6.4-9.1-8.8-14.1C292.6,222,293.4,213.9,296.7,205.8z"/>
<path d="M337.8,400.6c1.6,0.2,3.1,0.2,4.7,0.5c1.2,0.2,2.4,0.6,3.6,0.9c14.6,4.8,16.8,18.9,7.2,28.3c-6.4,6.3-18.8,6.2-23.1-2.8
	c-1.9-3.9-2-7.8,0.4-11.7c2.1-3.5,5.3-5,9.3-4.9c3.4,0.1,5.5,2.2,5.7,5.6c0.2,3.2-0.3,3.6-4.5,4.3c-1.1,0.2-1.9,0.8-2.1,1.9
	c-0.2,1.3,0.4,2.1,1.5,2.6c2.5,1.2,6.1,0.5,7.9-1.8c2.7-3.5,3.3-7.5,1.7-11.7c-1.4-3.8-4.5-5.5-8.3-6.1c-6.7-0.9-12.2,1.5-15.7,7.2
	c-3.7,5.9-3.6,12.3,0,18.3c5.1,8.5,15.3,11.4,25.2,7.2c8.9-3.8,14.1-10.6,14.5-20.2c0.4-8.9-4-15.6-11.8-19.9
	c-8.1-4.5-16.6-5.2-25.5-2.8c-1.3,0.4-1.9,0.5-2.2-1.1c-0.3-1.4-0.8-2.9-1.7-4.1c-4.7-6-10.2-9.8-18.4-10
	c-7.3-0.2-17.9,7.2-19.3,14.2c-0.3,1.5-0.8,1.4-2.1,1c-9.8-2.7-19.1-1.7-27.6,4c-6.7,4.5-10.2,11.1-9.7,19.2
	c0.5,6.9,3.6,12.4,9.2,16.7c7,5.3,17.3,6.3,24.5,1.8c6.2-3.9,9.2-9.9,8.4-17.2c-0.8-7-4.7-12-11.7-14c-4.8-1.3-9.5-0.8-13,3
	c-3.2,3.5-3.1,7.7-1.5,11.9c1.3,3.4,5,5.6,8.2,4.7c1.5-0.4,3-0.9,2.7-2.9c-0.3-1.9-1.7-2.2-3.4-2c-1.4,0.2-2.4-0.3-3-1.7
	c-1.4-3.4,0.7-7.6,4.3-8.2c3.5-0.5,6.7,0.4,9.1,3.2c6.8,7.6,0.8,18.7-7.2,20.1c-11.9,2.1-22.5-8.7-19.6-20.5c1.5-6,6-9.3,11.5-11.5
	c10-4.1,23.2-0.7,29.6,8c4.6,6.2,6.9,13.3,7.7,20.9c0.4,3.5,0.7,7,1.8,10.4c0.3,0.8,0.5,1.5,1.5,1.5c1,0,1.3-0.7,1.5-1.5
	c0.3-1.1,0.6-2.3,0.8-3.4c1-6.8,1.6-13.7,4.3-20.1C317.4,407.5,326.1,400.8,337.8,400.6z M306.6,417.1c-1.9-3.4-3.1-6.7-5.2-9.4
	c-2.5-3.2-5.1-6.3-8.7-8.4c-0.7-0.4-1.2-0.8-0.7-1.8c2.4-5.1,5.8-9.1,11.6-10.4c5.6-1.3,11.9,1.3,15.2,6.4c0.9,1.4,2.1,3,2.3,4.5
	c0.2,1.8-2.2,2-3.4,3C312.7,405.3,309.2,410.6,306.6,417.1z"/>
<path d="M301,478.9c0.1-3,2.4-5.2,5.5-5.2c3.1,0,5.6,2.4,5.5,5.4c-0.1,2.9-2.6,5.3-5.5,5.3C303.5,484.4,300.9,481.8,301,478.9z"/>
<path d="M311.1,492.1c0,2.4-1.7,3.8-4.3,3.8c-3.3,0-4.9-1.3-5-3.9c0-2.4,1.6-3.8,4.5-3.8C309.5,488.3,311.2,489.6,311.1,492.1z"/>
<path d="M309.7,503.4c0,1.7-1.3,2.9-3.3,2.9c-1.9,0-3.2-1.2-3.2-2.9c0-1.7,1.4-2.9,3.3-2.9C308.4,500.4,309.7,501.7,309.7,503.4z"/>
<path d="M309.7,525.3c0,2-1.4,2.6-3.1,2.7c-2.1,0-3.4-1-3.3-2.7c0.1-1.9,1.3-2.7,3.1-2.7C308.5,522.6,309.7,523.6,309.7,525.3z"/>
<path d="M303.6,514.5c0.1-1.8,1.1-2.8,3-2.7c1.8,0.1,2.6,1.2,2.6,2.9c0,1.7-1.4,2.9-3,2.8C304.5,517.3,303.6,516.1,303.6,514.5z"/>
<path d="M157.1,468.1c0-2.2,1.7-3.9,3.9-3.8c2.1,0,3.7,1.9,3.7,4.1c-0.1,2.3-1.7,3.8-3.9,3.7C158.5,472,157.1,470.5,157.1,468.1z"/>
<path d="M155.4,465.5c0,1.7-1.1,2.7-2.8,2.9c-1.7,0.2-2.9-1.2-2.9-3c0-1.8,1.3-3.2,2.8-3C154.3,462.6,155.4,463.7,155.4,465.5z"/>
<path d="M147.8,461.7c-0.2,1.6-1,2.9-2.8,2.9c-1.7-0.1-2.6-1.2-2.8-3c0.1-1.7,0.9-2.8,2.7-2.9C146.5,458.6,148,460.1,147.8,461.7z"
	/>
<path d="M139.8,459.7c0.1,1.5-0.8,2.3-2.3,2.4c-1.5,0.1-2.4-0.8-2.4-2.2c0-1.4,0.8-2.4,2.3-2.4C138.9,457.4,139.8,458.2,139.8,459.7
	z"/>
<path d="M452.2,472c-2.2,0.1-3.8-1.4-3.9-3.7c-0.1-2.2,1.6-4,3.7-4c2.1,0,3.8,1.6,3.9,3.8C455.8,470.5,454.5,471.9,452.2,472z"/>
<path d="M457.5,465.3c0-1.5,1.6-3.1,3-3c1.9,0.2,2.7,1.5,2.7,3.2c0,1.7-1,2.8-2.8,2.8C458.9,468.4,457.5,466.9,457.5,465.3z"/>
<path d="M465.1,461.5c0.3-1.3,0.7-2.7,2.6-2.8c1.6-0.1,3,1.2,3,2.9c0,1.6-1.3,3.1-2.8,3.1C466.5,464.7,465.2,463.2,465.1,461.5z"/>
<path d="M473.1,459.7c0-1.5,1-2.3,2.4-2.3c1.4,0,2.3,1,2.3,2.4c0,1.5-0.9,2.2-2.6,2.2C473.8,462,473.1,461.2,473.1,459.7z"/>
<path d="M228.6,265.8c2.6,0.1,4.7,2.4,4.6,4.9c-0.1,2.6-2.1,4.4-4.8,4.3c-2.5-0.1-4.8-2.2-4.7-4.6
	C223.7,268.2,226.2,265.7,228.6,265.8z"/>
<path d="M224.9,254.8c2.4,0,4,1.7,4,4.2c0,2.6-1.6,4.3-4,4.3c-2.3,0-4-1.9-4-4.4C221,256.6,222.8,254.8,224.9,254.8z"/>
<path d="M217.6,249.5c0-2,1.2-3.2,3.2-3.2c2,0,3.3,1.3,3.3,3.2c0,1.9-1.4,3.2-3.3,3.2C218.9,252.7,217.6,251.4,217.6,249.5z"/>
<path d="M379.8,270.5c0-2.5,2.2-4.8,4.8-4.7c2.2,0,4.7,2.5,4.8,4.7c0.1,2.4-2.3,4.6-4.9,4.6C381.8,275.1,379.8,273.2,379.8,270.5z"
	/>
<path d="M384,258.6c0.1-2.3,1.9-4,4.1-3.9c2.1,0.1,3.9,2,3.8,4.2c-0.1,2.5-1.8,4.3-4.1,4.3C385.5,263.2,383.9,261.4,384,258.6z"/>
<path d="M388.9,249.5c0-1.9,1.3-3.2,3.3-3.2c2,0,3.2,1.2,3.2,3.2c0,1.9-1.3,3.2-3.2,3.2C390.3,252.7,388.9,251.3,388.9,249.5z"/>
<path d="M141.1,389.1c0-2.5,1.5-4,3.9-4c2.2,0,4,1.7,4,4c0,2.5-1.6,4.2-4,4.2C142.4,393.2,141,391.8,141.1,389.1z"/>
<path d="M133.3,385.8c0-1.7,1.5-3.4,3.2-3.4c1.7-0.1,3.5,1.7,3.5,3.4c0,2-1.5,3.8-3.3,3.8C134.7,389.6,133.2,387.9,133.3,385.8z"/>
<path d="M130.1,386.5c-1.5,0-2-0.9-2-2.3c0.1-1.4,0.8-2.2,2.2-2.2c1.4,0.1,2.1,0.9,2.1,2.3C132.3,385.7,131.5,386.5,130.1,386.5z"/>
<path d="M468,385.1c2.4,0,3.9,1.5,3.9,4c0,2.7-1.4,4.2-3.9,4.2c-2.3,0-3.9-1.6-4-3.9C463.9,387,465.7,385,468,385.1z"/>
<path d="M473,385.8c0-1.8,1.7-3.5,3.4-3.4c1.7,0,3.3,1.8,3.2,3.7c-0.1,2-1.5,3.6-3.3,3.5C474.5,389.5,473,387.8,473,385.8z"/>
<path d="M480.6,384.4c-0.1-1.4,0.7-2.3,2.1-2.3c1.4-0.1,2.1,0.8,2.2,2.3c0,1.3-0.6,2.1-2,2.2C481.4,386.6,480.7,385.7,480.6,384.4z"
	/>
<path d="M301.4,227.6c0.1-2.4,2.4-4.4,5.2-4.4c2.7,0,5.1,2.2,5.1,4.5c0,2.3-2.6,4.5-5.2,4.4C303.8,232.2,301.3,229.9,301.4,227.6z"
	/>
<path d="M303.2,215.7c0.1-2,1.3-2.9,3.2-2.9c2.1,0,3.3,1.1,3.3,3.1c-0.1,2.2-1.5,2.7-3.3,2.7C304.2,218.5,303.1,217.6,303.2,215.7z"
	/>
<path d="M303.7,206.8c-0.1-1.7,1-2.5,2.7-2.5c1.7,0,3,0.6,3,2.5c0,1.7-1.1,2.5-2.8,2.4C304.8,209.2,303.7,208.5,303.7,206.8z"/>
<path d="M310.2,394.3c0,2.1-1.4,3.5-3.5,3.6c-2.4,0-3.9-1.3-3.9-3.7c0-2.5,1.4-4.1,3.8-4.1C308.8,390.1,310.2,391.7,310.2,394.3z"/>
</svg>
